<svg width="39" height="33" viewBox="0 0 39 33" fill="none" xmlns="http://www.w3.org/2000/svg">
<path d="M7.61521 0H10.1537V2.53846H7.61521V0Z" fill="#F8BCC4"/>
<path d="M10.1537 0H12.6923V2.53846H10.1537V0Z" fill="#F8BCC4"/>
<path d="M12.6923 0H15.2308V2.53846H12.6923V0Z" fill="#EA8C8E"/>
<path d="M15.2308 0H17.7692V2.53846H15.2308V0Z" fill="#F8BCC4"/>
<path d="M17.7692 0H20.3076V2.53846H17.7692V0Z" fill="#F8BCC4"/>
<path d="M20.3076 0H22.8462V2.53846H20.3076V0Z" fill="#EA8C8E"/>
<path d="M22.8462 0H25.3846V2.53846H22.8462V0Z" fill="#F8BCC4"/>
<path d="M25.3846 0H27.923V2.53846H25.3846V0Z" fill="#F8BCC4"/>
<path d="M27.923 2.53846L30.4614 2.5384V5.07686H27.923L27.923 2.53846Z" fill="#F8BCC4"/>
<path d="M7.61521 5.07681H10.1537V7.61526H7.61521V5.07681Z" fill="#F8BCC4"/>
<path d="M2.5384 5.07681H5.07686V7.61526H2.5384V5.07681Z" fill="#F8BCC4"/>
<path d="M0 7.61521L2.5384 7.61526L2.53846 10.1537H0V7.61521Z" fill="#F8BCC4"/>
<path d="M5.0768 2.5384L7.61521 2.53846V5.07681H5.07686L5.0768 2.5384Z" fill="#F8BCC4"/>
<path d="M10.1537 5.07681H12.6923V7.61526H10.1537V5.07681Z" fill="#F8BCC4"/>
<path d="M7.61521 7.61526H10.1537V10.1537H7.61521V7.61526Z" fill="#F8BCC4"/>
<path d="M7.61521 10.1537H10.1537V12.6924H7.61521V10.1537Z" fill="#F8BCC4"/>
<path d="M5.0768 10.1539L7.61521 10.1537V12.6924H5.0768V10.1539Z" fill="#FCA3A7"/>
<path d="M2.5384 12.6923L5.0768 12.6924L5.07686 15.2308H2.5384V12.6923Z" fill="#FCA3A7"/>
<path d="M2.5384 15.2308H5.07686V17.7692H2.5384V15.2308Z" fill="#FCA3A7"/>
<path d="M0 15.2307L2.5384 15.2308V17.7692H0V15.2307Z" fill="#FCA3A7"/>
<path d="M2.5384 17.7692H5.07686V20.3076H2.5384V17.7692Z" fill="#FCA3A7"/>
<path d="M5.07686 17.7692L7.61526 17.7691V20.3076H5.07686V17.7692Z" fill="#FCA3A7"/>
<path d="M7.61521 12.6924H10.1537V15.2308H7.61521V12.6924Z" fill="#FCA3A7"/>
<path d="M12.6923 12.6923H15.2308V15.2308H12.6923V12.6923Z" fill="#FCA3A7"/>
<path d="M15.2308 12.6923H17.7692V15.2308H15.2308V12.6923Z" fill="#FCA3A7"/>
<path d="M20.3078 12.6923H22.8462V15.2308H20.3078V12.6923Z" fill="#FCA3A7"/>
<path d="M22.8462 12.6923H25.3846V15.2308H22.8462V12.6923Z" fill="#FCA3A7"/>
<path d="M33.0001 12.6923H35.5385V15.2308H33.0001V12.6923Z" fill="#FCA3A7"/>
<path d="M30.4617 15.2307L33.0001 15.2308L33.0001 17.7692H30.4617V15.2307Z" fill="#FCA3A7"/>
<path d="M27.923 15.2307H30.4617V17.7692H27.923V15.2307Z" fill="#FCA3A7"/>
<path d="M25.3846 12.6923H27.923L27.923 15.2307L25.3846 15.2308V12.6923Z" fill="#FCA3A7"/>
<path d="M7.61521 15.2308H10.1537V17.7692L7.61526 17.7691L7.61521 15.2308Z" fill="#FCA3A7"/>
<path d="M10.1537 15.2308H12.6923L12.6923 17.7692H10.1537V15.2308Z" fill="#FCA3A7"/>
<path d="M12.6923 17.7692L15.2308 17.7691V20.3076H12.6923L12.6923 17.7692Z" fill="#FCA3A7"/>
<path d="M15.2308 17.7691H17.7692V20.3076H15.2308V17.7691Z" fill="#FCA3A7"/>
<path d="M15.2308 17.7691H17.7692V20.3076H15.2308V17.7691Z" fill="#FCA3A7"/>
<path d="M12.6923 17.7692L15.2308 17.7691V20.3076H12.6923L12.6923 17.7692Z" fill="#FCA3A7"/>
<path d="M10.1539 20.3078L12.6923 20.3076L12.6923 22.8462H10.1539V20.3078Z" fill="#FCA3A7"/>
<path d="M7.61526 20.3076L10.1539 20.3078V22.8462H7.61521L7.61526 20.3076Z" fill="#FCA3A7"/>
<path d="M17.7691 22.8462H20.3076V25.3846H17.7691V22.8462Z" fill="#FCA3A7"/>
<path d="M15.2307 22.8462H17.7691V25.3846H15.2307V22.8462Z" fill="#FCA3A7"/>
<path d="M25.3846 22.8462H27.923V25.3846H25.3846V22.8462Z" fill="#FCA3A7"/>
<path d="M27.923 22.8462H30.4614V25.3846H27.923V22.8462Z" fill="#FCA3A7"/>
<path d="M22.8462 22.8462H25.3846V25.3846H22.8462V22.8462Z" fill="#FCA3A7"/>
<path d="M20.3078 17.7691H22.8462V20.3076H20.3078V17.7691Z" fill="#FCA3A7"/>
<path d="M17.7692 17.7691H20.3078V20.3076H17.7692V17.7691Z" fill="#FCA3A7"/>
<path d="M27.923 17.7692H30.4617L30.4614 20.3076H27.923V17.7692Z" fill="#FCA3A7"/>
<path d="M30.4614 20.3076L33.0001 20.3078V22.8462L30.4614 22.8462V20.3076Z" fill="#FCA3A7"/>
<path d="M25.3846 17.7691L27.923 17.7692V20.3076H25.3846V17.7691Z" fill="#FCA3A7"/>
<path d="M5.07686 7.61526H7.61521V10.1537L5.0768 10.1539L5.07686 7.61526Z" fill="#F8BCC4"/>
<path d="M10.1537 7.61526H12.6923V10.1537H10.1537V7.61526Z" fill="#F8BCC4"/>
<path d="M12.6923 5.07681H15.2308V7.61526H12.6923V5.07681Z" fill="#FD8C90"/>
<path d="M15.2308 7.61526L17.7692 7.61521V10.1537H15.2307L15.2308 7.61526Z" fill="#FD8C90"/>
<path d="M10.1537 10.1537H12.6923L12.6923 12.6923L10.1537 12.6924V10.1537Z" fill="#FD8C90"/>
<path d="M25.3846 7.61521H27.923V10.1537H25.3846V7.61521Z" fill="#FD8C90"/>
<path d="M27.923 10.1537L30.4614 10.1539V12.6924L27.923 12.6923V10.1537Z" fill="#FD8C90"/>
<path d="M20.3078 10.1539H22.8462V12.6923H20.3078V10.1539Z" fill="#FD8C90"/>
<path d="M30.4614 5.07686L33.0001 5.07681V7.61526H30.4617L30.4614 5.07686Z" fill="#FCA3A7"/>
<path d="M33.0001 7.61526L35.5385 7.61521V10.1537H33.0001L33.0001 7.61526Z" fill="#FCA3A7"/>
<path d="M35.5385 10.1537L38.0769 10.1539V12.6924L35.5385 12.6923V10.1537Z" fill="#FCA3A7"/>
<path d="M15.2308 5.07681H17.7692V7.61521L15.2308 7.61526V5.07681Z" fill="#F8BCC4"/>
<path d="M17.7692 5.07681H20.3076V7.61526L17.7692 7.61521V5.07681Z" fill="#F8BCC4"/>
<path d="M17.7692 7.61521L20.3076 7.61526L20.3078 10.1539L17.7692 10.1537V7.61521Z" fill="#F8BCC4"/>
<path d="M17.7692 10.1537L20.3078 10.1539V12.6923H17.7692V10.1537Z" fill="#F8BCC4"/>
<path d="M15.2307 10.1537H17.7692V12.6923H15.2308L15.2307 10.1537Z" fill="#F8BCC4"/>
<path d="M12.6923 10.1537H15.2307L15.2308 12.6923H12.6923L12.6923 10.1537Z" fill="#F8BCC4"/>
<path d="M20.3076 5.07681H22.8462V7.61526H20.3076V5.07681Z" fill="#FD8C90"/>
<path d="M22.8462 5.07681H25.3846L25.3846 7.61521L22.8462 7.61526V5.07681Z" fill="#F8BCC4"/>
<path d="M22.8462 7.61526L25.3846 7.61521V10.1537L22.8462 10.1539V7.61526Z" fill="#F8BCC4"/>
<path d="M22.8462 10.1539L25.3846 10.1537L25.3846 12.6923H22.8462V10.1539Z" fill="#F8BCC4"/>
<path d="M25.3846 10.1537H27.923V12.6923H25.3846L25.3846 10.1537Z" fill="#F8BCC4"/>
<path d="M30.4617 7.61526H33.0001L33.0001 10.1537L30.4614 10.1539L30.4617 7.61526Z" fill="#F8BCC4"/>
<path d="M30.4614 10.1539L33.0001 10.1537V12.6923L30.4614 12.6924V10.1539Z" fill="#F8BCC4"/>
<path d="M33.0001 10.1537H35.5385V12.6923H33.0001V10.1537Z" fill="#F8BCC4"/>
<path d="M25.3846 5.07681L27.923 5.07686L27.923 7.61521H25.3846L25.3846 5.07681Z" fill="#F8BCC4"/>
<path d="M7.61521 2.53846H10.1537V5.07681H7.61521V2.53846Z" fill="#FD8C90"/>
<path d="M5.07686 5.07681H7.61521V7.61526H5.07686V5.07681Z" fill="#FD8C90"/>
<path d="M2.5384 7.61526H5.07686L5.0768 10.1539L2.53846 10.1537L2.5384 7.61526Z" fill="#FD8C90"/>
<path d="M0 10.1537H2.53846L2.5384 12.6923L0 12.6924V10.1537Z" fill="#FCA2A4"/>
<path d="M2.53846 10.1537L5.0768 10.1539V12.6924L2.5384 12.6923L2.53846 10.1537Z" fill="#E76678"/>
<path d="M10.1537 12.6924L12.6923 12.6923V15.2308H10.1537V12.6924Z" fill="#E76678"/>
<path d="M5.07686 15.2308H7.61521L7.61526 17.7691L5.07686 17.7692V15.2308Z" fill="#E76678"/>
<path d="M7.61526 17.7691L10.1537 17.7692L10.1539 20.3078L7.61526 20.3076V17.7691Z" fill="#E76678"/>
<path d="M10.1537 17.7692H12.6923L12.6923 20.3076L10.1539 20.3078L10.1537 17.7692Z" fill="#E76678"/>
<path d="M12.6923 15.2308H15.2308V17.7691L12.6923 17.7692L12.6923 15.2308Z" fill="#E76678"/>
<path d="M12.6923 7.61526H15.2308L15.2307 10.1537H12.6923V7.61526Z" fill="#F17478"/>
<path d="M5.0768 12.6924H7.61521V15.2308H5.07686L5.0768 12.6924Z" fill="#F17478"/>
<path d="M5.0768 22.8462L7.61521 22.8462L7.61526 25.3846H5.0768V22.8462Z" fill="#E76678"/>
<path d="M10.1539 22.8462L15.2307 22.8462V25.3846H10.1539V22.8462Z" fill="#E76678"/>
<path d="M2.5384 20.3076H5.07686L5.0768 22.8462L2.5384 22.8462V20.3076Z" fill="#E76678"/>
<path d="M0 20.3078L2.5384 20.3076V22.8462H0V20.3078Z" fill="#D85D71"/>
<path d="M2.5384 22.8462L5.0768 22.8462V25.3846H2.5384V22.8462Z" fill="#D85D71"/>
<path d="M17.7691 25.3846H20.3076V27.923H17.7691V25.3846Z" fill="#D85D71"/>
<path d="M20.3076 25.3846L33.0001 25.3846V27.923H20.3076V25.3846Z" fill="#C0415C"/>
<path d="M17.7691 27.923H20.3076V30.4615H17.7691V27.923Z" fill="#C0415C"/>
<path d="M20.3076 27.923L22.8462 27.923V30.4615H20.3076V27.923Z" fill="#C0415C"/>
<path d="M20.3076 30.4615H22.8462V33.0001H20.3078L20.3076 30.4615Z" fill="#C0415C"/>
<path d="M20.3076 30.4615H22.8462V33.0001H20.3078L20.3076 30.4615Z" fill="#C0415C"/>
<path d="M22.8462 30.4615L25.3846 30.4617V33.0001H22.8462V30.4615Z" fill="#C0415C"/>
<path d="M22.8462 27.923H25.3846V30.4617L22.8462 30.4615V27.923Z" fill="#D85D71"/>
<path d="M25.3846 27.923H27.923V30.4615L25.3846 30.4617V27.923Z" fill="#F6757A"/>
<path d="M27.923 27.923H30.4614V30.4615H27.923V27.923Z" fill="#F6757A"/>
<path d="M30.4614 27.923L33.0001 27.923L33.0001 30.4615H30.4614V27.923Z" fill="#D85D71"/>
<path d="M25.3846 30.4617L30.4614 30.4615L30.4615 33.0001H25.3846V30.4617Z" fill="#D85D71"/>
<path d="M5.0768 25.3846H15.2307L15.2306 27.923H5.0768V25.3846Z" fill="#D85D71"/>
<path d="M5.07686 20.3076H7.61526L7.61521 22.8462L5.0768 22.8462L5.07686 20.3076Z" fill="#F17478"/>
<path d="M0 17.7692H2.5384V20.3076L0 20.3078V17.7692Z" fill="#F17478"/>
<path d="M7.61521 22.8462H10.1539V25.3846H7.61526L7.61521 22.8462Z" fill="#F17478"/>
<path d="M0 12.6924L2.5384 12.6923V15.2308L0 15.2307V12.6924Z" fill="#F17478"/>
<path d="M15.2308 15.2308H17.7692V17.7691H15.2308V15.2308Z" fill="#F17478"/>
<path d="M17.7692 12.6923H20.3078V15.2308H17.7692V12.6923Z" fill="#F17478"/>
<path d="M20.3078 15.2308H22.8462V17.7691H20.3078V15.2308Z" fill="#F17478"/>
<path d="M22.8462 17.7691H25.3846V20.3076H22.8462V17.7691Z" fill="#F17478"/>
<path d="M17.7692 20.3076H20.3078L20.3076 22.8462H17.7691L17.7692 20.3076Z" fill="#F17478"/>
<path d="M20.3076 22.8462H22.8462V25.3846H20.3076V22.8462Z" fill="#F17478"/>
<path d="M30.4617 17.7692H33.0001V20.3078L30.4614 20.3076L30.4617 17.7692Z" fill="#F17478"/>
<path d="M25.3846 20.3076H27.923L27.923 22.8462H25.3846V20.3076Z" fill="#F17478"/>
<path d="M27.923 20.3076H30.4614V22.8462H27.923L27.923 20.3076Z" fill="#F17478"/>
<path d="M33.0001 17.7692L35.5385 17.7691V20.3076L33.0001 20.3078V17.7692Z" fill="#FCA3A7"/>
<path d="M35.5385 17.7691H38.0769V20.3076H35.5385V17.7691Z" fill="#F17478"/>
<path d="M27.923 7.61521L30.4617 7.61526L30.4614 10.1539L27.923 10.1537V7.61521Z" fill="#F17478"/>
<path d="M20.3076 7.61526H22.8462V10.1539H20.3078L20.3076 7.61526Z" fill="#F17478"/>
<path d="M10.1537 2.53846H12.6923V5.07681H10.1537V2.53846Z" fill="#FD8C90"/>
<path d="M12.6923 2.53846H15.2308V5.07681H12.6923V2.53846Z" fill="#F6757A"/>
<path d="M15.2308 2.53846H17.7692V5.07681H15.2308V2.53846Z" fill="#FD8C90"/>
<path d="M17.7692 2.53846H20.3076V5.07681H17.7692V2.53846Z" fill="#FD8C90"/>
<path d="M20.3076 2.53846H22.8462V5.07681H20.3076V2.53846Z" fill="#F6757A"/>
<path d="M22.8462 2.53846H25.3846V5.07681H22.8462V2.53846Z" fill="#FD8C90"/>
<path d="M25.3846 2.53846H27.923L27.923 5.07686L25.3846 5.07681V2.53846Z" fill="#FD8C90"/>
<path d="M27.923 5.07686H30.4614L30.4617 7.61526L27.923 7.61521L27.923 5.07686Z" fill="#FD8C90"/>
<path d="M17.7692 15.2308H20.3078V17.7691H17.7692V15.2308Z" fill="#E76678"/>
<path d="M30.4614 12.6924L33.0001 12.6923V15.2308L30.4617 15.2307L30.4614 12.6924Z" fill="#F17478"/>
<path d="M25.3846 15.2308L27.923 15.2307V17.7692L25.3846 17.7691L25.3846 15.2308Z" fill="#F17478"/>
<path d="M35.5385 12.6923L38.0769 12.6924V15.2308H35.5385V12.6923Z" fill="#F17478"/>
<path d="M33.0001 15.2308H35.5385V17.7691L33.0001 17.7692L33.0001 15.2308Z" fill="#F17478"/>
<path d="M27.923 12.6923L30.4614 12.6924L30.4617 15.2307H27.923L27.923 12.6923Z" fill="#E76678"/>
<path d="M22.8462 15.2308H25.3846L25.3846 17.7691H22.8462V15.2308Z" fill="#E76678"/>
<path d="M35.5385 15.2308H38.0769V17.7691H35.5385V15.2308Z" fill="#E76678"/>
<path d="M33.0001 20.3078L35.5385 20.3076V22.8462H33.0001V20.3078Z" fill="#F17478"/>
<path d="M35.5385 20.3076H38.0769V22.8462H35.5385V20.3076Z" fill="#E76678"/>
<path d="M30.4614 22.8462L33.0001 22.8462L33.0001 25.3846L30.4614 25.3846V22.8462Z" fill="#E76678"/>
<path d="M22.8462 20.3076H25.3846V22.8462H22.8462L22.8462 20.3076Z" fill="#E76678"/>
<path d="M20.3078 20.3076H22.8462L22.8462 22.8462H20.3076L20.3078 20.3076Z" fill="#E76678"/>
<path d="M15.2308 20.3076H17.7692L17.7691 22.8462H15.2307L15.2308 20.3076Z" fill="#E76678"/>
<path d="M12.6923 20.3076H15.2308L15.2307 22.8462L12.6923 22.8462L12.6923 20.3076Z" fill="#E76678"/>
<path d="M15.2307 25.3846H17.7691V27.923H15.2306L15.2307 25.3846Z" fill="#E76678"/>
<path d="M33.0001 22.8462H35.5385V25.3846L33.0001 25.3846L33.0001 22.8462Z" fill="#D85D71"/>
</svg>
