<svg width="47" height="41" viewBox="0 0 47 41" fill="none" xmlns="http://www.w3.org/2000/svg">
<path d="M4.80444 14.4826H12.3244V17.3383H4.80444V14.4826Z" fill="black"/>
<path d="M10.0267 16.9303H15.04V19.3781H10.0267V16.9303Z" fill="black"/>
<path d="M12.3244 18.3582H15.04V24.0697H12.3244V18.3582Z" fill="black"/>
<path d="M5.22222 26.3134H7.72889V36.1045H5.22222V26.3134Z" fill="black"/>
<path d="M44.4933 26.5174H47V36.3085H44.4933V26.5174Z" fill="black"/>
<path d="M7.52 23.8657H10.2356V26.3134H7.52V23.8657Z" fill="black"/>
<path d="M7.52 36.1045H10.2356V38.5522H7.52V36.1045Z" fill="black"/>
<path d="M10.0267 38.5522H20.0533V41H10.0267V38.5522Z" fill="black"/>
<path d="M19.8444 36.1045H24.8578V38.5522H19.8444V36.1045Z" fill="black"/>
<path d="M24.6489 33.6567H27.1556V36.1045H24.6489V33.6567Z" fill="black"/>
<path d="M26.9467 31.209H29.4533V33.6567H26.9467V31.209Z" fill="black"/>
<path d="M26.9467 31.209H29.4533V33.6567H26.9467V31.209Z" fill="black"/>
<path d="M32.1689 28.9652H34.6756V31.4129H32.1689V28.9652Z" fill="black"/>
<path d="M34.4667 31.4129H39.8978V33.8607H34.4667V31.4129Z" fill="black"/>
<path d="M39.6889 28.9652H41.9867V31.4129H39.6889V28.9652Z" fill="black"/>
<path d="M34.4667 26.5174H39.6889V28.9652H34.4667V26.5174Z" fill="black"/>
<path d="M31.5422 36.1045H44.7022V38.5522H31.5422V36.1045Z" fill="black"/>
<path d="M29.2444 33.6567H31.7511V36.1045H29.2444V33.6567Z" fill="black"/>
<path d="M42.1956 24.0697H44.7022V26.5174H42.1956V24.0697Z" fill="black"/>
<path d="M39.8978 21.6219H42.4044V24.0697H39.8978V21.6219Z" fill="black"/>
<path d="M37.6 19.1741H40.1067V21.6219H37.6V19.1741Z" fill="black"/>
<path d="M37.3911 4.89552H39.8978V7.34328H37.3911V4.89552Z" fill="black"/>
<path d="M27.3644 4.89552H29.8711V7.34328H27.3644V4.89552Z" fill="black"/>
<path d="M24.8578 7.34328H27.3644V9.79105H24.8578V7.34328Z" fill="black"/>
<path d="M22.3511 9.58706H24.8578V12.0348H22.3511V9.58706Z" fill="black"/>
<path d="M29.6622 2.65174H37.3911V5.0995H29.6622V2.65174Z" fill="black"/>
<path d="M39.8978 7.1393H42.4044V19.1741H39.8978V7.1393Z" fill="black"/>
<path d="M10.0267 21.6219H12.7422V24.0697H10.0267V21.6219Z" fill="black"/>
<path d="M12.3244 21.6219H17.5467V24.0697H12.3244V21.6219Z" fill="black"/>
<path d="M5.01333 0H12.7422V2.44776H5.01333V0Z" fill="black"/>
<path d="M2.50667 2.44776H5.22222V4.89552H2.50667V2.44776Z" fill="black"/>
<path d="M12.5333 2.44776H15.04V4.89552H12.5333V2.44776Z" fill="black"/>
<path d="M2.71556 12.0348H5.22222V14.4826H2.71556V12.0348Z" fill="black"/>
<path d="M14.8311 9.58706H20.0533V12.0348H14.8311V9.58706Z" fill="black"/>
<path d="M14.8311 4.89552H17.5467V10.199H14.8311V4.89552Z" fill="black"/>
<path d="M0 4.89552H2.71556V12.2388H0V4.89552Z" fill="black"/>
<path d="M24.8578 14.4826H27.5733V21.6219H24.8578V14.4826Z" fill="black"/>
<path d="M22.1422 12.0348H24.8578V16.7264H22.1422V12.0348Z" fill="black"/>
<path d="M19.6356 12.0348H22.3511V14.4826H19.6356V12.0348Z" fill="black"/>
<path d="M22.3511 21.6219H24.8578V24.0697H22.3511V21.6219Z" fill="black"/>
<path d="M15.04 24.0697H22.3511V26.5174H15.04V24.0697Z" fill="black"/>
<path d="M7.72889 33.6567H17.5467V36.1045H7.72889V33.6567Z" fill="#B2B2B2"/>
<path d="M7.72889 33.6567H17.5467V36.1045H7.72889V33.6567Z" fill="#B2B2B2"/>
<path d="M7.72889 33.6567H17.5467V36.1045H7.72889V33.6567Z" fill="#B2B2B2"/>
<path d="M17.3378 31.4129H22.3511V33.8607H17.3378V31.4129Z" fill="#B2B2B2"/>
<path d="M17.3378 31.4129H22.3511V33.8607H17.3378V31.4129Z" fill="#B2B2B2"/>
<path d="M17.3378 31.4129H22.3511V33.8607H17.3378V31.4129Z" fill="#B2B2B2"/>
<path d="M22.1422 29.1692H24.6489V31.6169H22.1422V29.1692Z" fill="#B2B2B2"/>
<path d="M22.1422 29.1692H24.6489V31.6169H22.1422V29.1692Z" fill="#B2B2B2"/>
<path d="M22.1422 29.1692H24.6489V31.6169H22.1422V29.1692Z" fill="#B2B2B2"/>
<path d="M24.44 26.7214H26.9467V29.1692H24.44V26.7214Z" fill="#B2B2B2"/>
<path d="M24.44 26.7214H26.9467V29.1692H24.44V26.7214Z" fill="#B2B2B2"/>
<path d="M24.44 26.7214H26.9467V29.1692H24.44V26.7214Z" fill="#B2B2B2"/>
<path d="M31.3333 16.9303H33.84V21.8259H31.3333V16.9303Z" fill="#B2B2B2"/>
<path d="M31.3333 16.9303H33.84V21.8259H31.3333V16.9303Z" fill="#B2B2B2"/>
<path d="M31.3333 16.9303H33.84V21.8259H31.3333V16.9303Z" fill="#B2B2B2"/>
<path d="M15.04 16.9303H17.5467V21.6219H15.04V16.9303Z" fill="#B2B2B2"/>
<path d="M15.04 16.9303H17.5467V21.6219H15.04V16.9303Z" fill="#B2B2B2"/>
<path d="M15.04 16.9303H17.5467V21.6219H15.04V16.9303Z" fill="#B2B2B2"/>
<path d="M2.71556 4.89552H5.22222V12.0348H2.71556V4.89552Z" fill="#B2B2B2"/>
<path d="M2.71556 4.89552H5.22222V12.0348H2.71556V4.89552Z" fill="#B2B2B2"/>
<path d="M2.71556 4.89552H5.22222V12.0348H2.71556V4.89552Z" fill="#B2B2B2"/>
<path d="M5.22222 2.44776H12.5333V4.89552H5.22222V2.44776Z" fill="#B2B2B2"/>
<path d="M5.22222 2.44776H12.5333V4.89552H5.22222V2.44776Z" fill="#B2B2B2"/>
<path d="M5.22222 2.44776H12.5333V4.89552H5.22222V2.44776Z" fill="#B2B2B2"/>
<path d="M12.5333 4.89552H14.8311V8.1592H12.5333V4.89552Z" fill="#B2B2B2"/>
<path d="M12.5333 4.89552H14.8311V8.1592H12.5333V4.89552Z" fill="#B2B2B2"/>
<path d="M12.5333 4.89552H14.8311V8.1592H12.5333V4.89552Z" fill="#B2B2B2"/>
<path d="M5.22222 12.0348H9.60889V14.4826H5.22222V12.0348Z" fill="#B2B2B2"/>
<path d="M5.22222 12.0348H9.60889V14.4826H5.22222V12.0348Z" fill="#B2B2B2"/>
<path d="M5.22222 12.0348H9.60889V14.4826H5.22222V12.0348Z" fill="#B2B2B2"/>
<path d="M33.6311 5.0995H36.1378V16.9303H33.6311V5.0995Z" fill="#B2B2B2"/>
<path d="M33.6311 5.0995H36.1378V16.9303H33.6311V5.0995Z" fill="#B2B2B2"/>
<path d="M33.6311 5.0995H36.1378V16.9303H33.6311V5.0995Z" fill="#B2B2B2"/>
<path d="M29.8711 5.0995H36.1378V7.54726H29.8711V5.0995Z" fill="#B2B2B2"/>
<path d="M29.8711 5.0995H36.1378V7.54726H29.8711V5.0995Z" fill="#B2B2B2"/>
<path d="M29.8711 5.0995H36.1378V7.54726H29.8711V5.0995Z" fill="#B2B2B2"/>
<path d="M27.3644 7.34328H29.8711V9.79105H27.3644V7.34328Z" fill="#B2B2B2"/>
<path d="M27.3644 7.34328H29.8711V9.79105H27.3644V7.34328Z" fill="#B2B2B2"/>
<path d="M27.3644 7.34328H29.8711V9.79105H27.3644V7.34328Z" fill="#B2B2B2"/>
<path d="M24.8578 9.79105H27.3644V12.2388H24.8578V9.79105Z" fill="#B2B2B2"/>
<path d="M24.8578 9.79105H27.3644V12.2388H24.8578V9.79105Z" fill="#B2B2B2"/>
<path d="M24.8578 9.79105H27.3644V12.2388H24.8578V9.79105Z" fill="#B2B2B2"/>
<path d="M29.0356 21.8259H31.5422V24.2736H29.0356V21.8259Z" fill="#B2B2B2"/>
<path d="M29.0356 21.8259H31.5422V24.2736H29.0356V21.8259Z" fill="#B2B2B2"/>
<path d="M29.0356 21.8259H31.5422V24.2736H29.0356V21.8259Z" fill="#B2B2B2"/>
<path d="M26.7378 24.2736H29.2444V26.7214H26.7378V24.2736Z" fill="#B2B2B2"/>
<path d="M26.7378 24.2736H29.2444V26.7214H26.7378V24.2736Z" fill="#B2B2B2"/>
<path d="M26.7378 24.2736H29.2444V26.7214H26.7378V24.2736Z" fill="#B2B2B2"/>
</svg>
