<svg width="33" height="33" viewBox="0 0 33 33" fill="none" xmlns="http://www.w3.org/2000/svg">
<rect x="9" y="6" width="14.5714" height="21" fill="#FEDA00"/>
<rect x="6" y="24" width="15" height="20.5714" transform="rotate(-90 6 24)" fill="#FEDA00"/>
<rect x="9" width="14.5714" height="3" fill="#EAEAEA"/>
<rect x="9" y="30" width="15" height="3" fill="#EAEAEA"/>
<rect x="3" y="24" width="3" height="3" fill="#EAEAEA"/>
<rect x="6" y="27" width="3" height="3" fill="#EAEAEA"/>
<rect width="3" height="3" transform="matrix(1 0 0 -1 3 9)" fill="#EAEAEA"/>
<rect width="3" height="3" transform="matrix(1 0 0 -1 6 6)" fill="#EAEAEA"/>
<rect width="3" height="3" transform="matrix(1 0 0 -1 6 12)" fill="#EAEAEA"/>
<rect width="3" height="3" transform="matrix(1 0 0 -1 9 9)" fill="#EAEAEA"/>
<rect x="26.5713" y="6" width="3" height="3" fill="#EAEAEA"/>
<rect x="15" y="6" width="3" height="3" fill="#EAEAEA"/>
<rect x="12" y="12" width="3" height="3" fill="#EAEAEA"/>
<rect x="15" y="15" width="3" height="3" fill="#EAEAEA"/>
<rect x="18" y="18" width="3" height="3" fill="#EAEAEA"/>
<rect x="15" y="24" width="3" height="3" fill="#EAEAEA"/>
<rect x="12" y="21" width="9" height="3" fill="#EAEAEA"/>
<rect x="12" y="9" width="9" height="3" fill="#EAEAEA"/>
<rect y="24" width="15" height="3" transform="rotate(-90 0 24)" fill="#EAEAEA"/>
<rect x="29.5713" y="23.5715" width="14.5714" height="3" transform="rotate(-90 29.5713 23.5715)" fill="#D9D9D9"/>
<rect x="29.5713" y="24" width="15" height="3" transform="rotate(-90 29.5713 24)" fill="#EAEAEA"/>
<rect x="9" y="27" width="14.5714" height="3" fill="#FBAA01"/>
<rect x="9" y="27" width="3" height="3" transform="rotate(180 9 27)" fill="#FAED00"/>
<rect x="9" y="9" width="3" height="3" transform="rotate(180 9 9)" fill="#FAED00"/>
<rect x="6" y="9" width="15" height="3" transform="rotate(90 6 9)" fill="#FAED00"/>
<rect x="23.5713" y="6" width="14.5714" height="3" transform="rotate(-180 23.5713 6)" fill="#FAED00"/>
<rect x="9" y="6" width="15.4286" height="21" fill="#FEDA00"/>
<rect x="6" y="24" width="15" height="21" transform="rotate(-90 6 24)" fill="#FEDA00"/>
<rect x="9.42871" width="14.5714" height="3" fill="#EAEAEA"/>
<rect x="3" y="24" width="3" height="3" fill="#EAEAEA"/>
<rect x="6" y="27" width="3" height="3" fill="#EAEAEA"/>
<rect width="3" height="3" transform="matrix(1 0 0 -1 24 30)" fill="#EAEAEA"/>
<rect width="3" height="3" transform="matrix(1 0 0 -1 27 27)" fill="#EAEAEA"/>
<rect width="3" height="3" transform="matrix(1 0 0 -1 3 9)" fill="#EAEAEA"/>
<rect width="3" height="3" transform="matrix(1 0 0 -1 6 6)" fill="#EAEAEA"/>
<rect width="3" height="3" transform="matrix(1 0 0 -1 6 12)" fill="#FAFAFA"/>
<rect width="3" height="3" transform="matrix(1 0 0 -1 9 9)" fill="#FAFAFA"/>
<rect x="24" y="3" width="3" height="3" fill="#EAEAEA"/>
<rect x="24" y="6" width="3" height="3" fill="#FBAA01"/>
<rect x="15" y="6" width="3" height="3" fill="#FAFAFA"/>
<rect x="12" y="12" width="3" height="3" fill="#FAFAFA"/>
<rect x="15" y="15" width="3" height="3" fill="#FAFAFA"/>
<rect x="18" y="18" width="3" height="3" fill="#FAFAFA"/>
<rect x="15" y="24" width="3" height="3" fill="#FAFAFA"/>
<rect x="12" y="21" width="9" height="3" fill="#FAFAFA"/>
<rect x="12" y="9" width="9" height="3" fill="#FAFAFA"/>
<rect x="24" y="24" width="3" height="3" fill="#FBAA01"/>
<rect y="24" width="15" height="3" transform="rotate(-90 0 24)" fill="#EAEAEA"/>
<rect x="29.5713" y="23.5715" width="14.5714" height="3" transform="rotate(-90 29.5713 23.5715)" fill="#D9D9D9"/>
<rect x="30" y="24" width="15" height="3" transform="rotate(-90 30 24)" fill="#EAEAEA"/>
<rect x="27" y="24" width="15" height="3" transform="rotate(-90 27 24)" fill="#FBAA01"/>
<rect x="9" y="27" width="15" height="3" fill="#FBAA01"/>
<rect x="9" y="27" width="3" height="3" transform="rotate(180 9 27)" fill="#FAED00"/>
<rect x="9" y="9" width="3" height="3" transform="rotate(180 9 9)" fill="#FAED00"/>
<rect x="6" y="9" width="15" height="3" transform="rotate(90 6 9)" fill="#FAED00"/>
<rect x="24" y="6" width="15" height="3" transform="rotate(-180 24 6)" fill="#FAED00"/>
</svg>
