<svg width="1728" height="1117" viewBox="0 0 1728 1117" fill="none" xmlns="http://www.w3.org/2000/svg">
<g clip-path="url(#clip0_29_2328)">
<rect width="1728" height="1117" fill="#191919"/>
<rect x="83.0078" y="984.135" width="11.0961" height="11.0961" fill="#F1F1F1" fill-opacity="0.4"/>
<rect x="451.739" y="1114.73" width="11.0961" height="11.0961" fill="#F1F1F1" fill-opacity="0.4"/>
<rect x="510.633" y="729.779" width="9.38898" height="9.38898" fill="#F1F1F1" fill-opacity="0.4"/>
<rect x="325.414" y="887.685" width="13.6567" height="13.6567" fill="#F1F1F1" fill-opacity="0.4"/>
<rect x="380.895" y="819.401" width="9.38898" height="9.38898" fill="#F1F1F1" fill-opacity="0.4"/>
<rect x="705.241" y="863.786" width="10.2425" height="11.0961" fill="#F1F1F1" fill-opacity="0.4"/>
<rect x="967.279" y="773.31" width="7.68189" height="11.0961" fill="#F1F1F1" fill-opacity="0.4"/>
<rect x="1025.32" y="653.814" width="5.9748" height="5.9748" fill="#F1F1F1" fill-opacity="0.4"/>
<rect x="1068.85" y="936.337" width="7.68189" height="7.68189" fill="#F1F1F1" fill-opacity="0.4"/>
<rect x="1162.74" y="888.539" width="6.82835" height="6.82835" fill="#F1F1F1" fill-opacity="0.4"/>
<rect x="1308.7" y="1003.77" width="8.53543" height="7.68189" fill="#F1F1F1" fill-opacity="0.4"/>
<rect x="1408.56" y="1080.59" width="11.9496" height="11.9496" fill="#F1F1F1" fill-opacity="0.4"/>
<rect x="1461.48" y="1049" width="14.5102" height="14.5102" fill="#F1F1F1" fill-opacity="0.4"/>
<rect x="1432.46" y="924.387" width="7.68189" height="6.82835" fill="#F1F1F1" fill-opacity="0.4"/>
<rect x="1493.92" y="931.216" width="9.38898" height="9.38898" fill="#F1F1F1" fill-opacity="0.4"/>
<rect x="1528.91" y="842.447" width="8.53543" height="8.53543" fill="#F1F1F1" fill-opacity="0.4"/>
<rect x="1318.94" y="586.384" width="10.2425" height="10.2425" fill="#F1F1F1" fill-opacity="0.4"/>
<rect x="1409.41" y="301.301" width="11.9496" height="11.9496" fill="#F1F1F1" fill-opacity="0.4"/>
<rect x="1448.68" y="278.255" width="11.0961" height="11.0961" fill="#F1F1F1" fill-opacity="0.4"/>
<rect x="1261.75" y="34.9954" width="7.68189" height="7.68189" fill="#F1F1F1" fill-opacity="0.4"/>
<rect x="768.403" width="11.0961" height="11.0961" fill="#F1F1F1" fill-opacity="0.4"/>
<rect x="537.947" y="177.537" width="11.0961" height="11.0961" fill="#F1F1F1" fill-opacity="0.4"/>
<rect x="445.764" y="19.6316" width="13.6567" height="13.6567" fill="#F1F1F1" fill-opacity="0.4"/>
<rect x="293.833" y="197.168" width="11.0961" height="11.0961" fill="#F1F1F1" fill-opacity="0.4"/>
<rect x="217.868" y="306.422" width="11.0961" height="11.0961" fill="#F1F1F1" fill-opacity="0.4"/>
<rect x="222.989" y="537.732" width="11.0961" height="11.0961" fill="#F1F1F1" fill-opacity="0.4"/>
<rect x="460.274" y="446.403" width="6.82835" height="6.82835" fill="#F1F1F1" fill-opacity="0.4"/>
<rect x="1363.32" y="218.507" width="9.38898" height="9.38898" fill="#F1F1F1" fill-opacity="0.4"/>
<rect x="1040.68" y="175.83" width="11.0961" height="11.0961" fill="#F1F1F1" fill-opacity="0.4"/>
<rect x="1000.57" y="297.887" width="11.0961" height="11.0961" fill="#F1F1F1" fill-opacity="0.4"/>
</g>
<defs>
<clipPath id="clip0_29_2328">
<rect width="1728" height="1117" fill="white"/>
</clipPath>
</defs>
</svg>
