<svg width="144" height="144" viewBox="0 0 144 144" fill="none" xmlns="http://www.w3.org/2000/svg">
<path d="M11.0753 26.1817H132.921V78.5449H11.0753V26.1817Z" fill="#F91615"/>
<path d="M22.1549 13.0897H55.3857V65.4528H22.1549V13.0897Z" fill="#F91615"/>
<path d="M88.6149 13.0897H121.846V65.4528H88.6149V13.0897Z" fill="#F91615"/>
<path d="M44.3077 91.6357H99.6923V104.726H44.3077V91.6357Z" fill="#F91615"/>
<path d="M33.2302 78.5449H110.769V91.6357H33.2302V78.5449Z" fill="#F91615"/>
<path d="M55.3851 104.728H88.6159V117.818H55.3851V104.728Z" fill="#F91615"/>
<path d="M66.4604 117.817H77.5373V130.908H66.4604V117.817Z" fill="#F91615"/>
<path d="M22.1549 0H55.3857V13.0908H22.1549V0Z" fill="#EAEAEA"/>
<path d="M0 65.4529V26.1805H11.0769V65.4529H0Z" fill="#EAEAEA"/>
<path d="M55.3857 13.0897H66.462V26.1805H55.3851L55.3857 13.0897Z" fill="#EAEAEA"/>
<path d="M11.0753 65.4529H22.1522V78.5437H11.0753V65.4529Z" fill="#EAEAEA"/>
<path d="M22.1549 78.5449H33.2318V91.6357H22.1549V78.5449Z" fill="#EAEAEA"/>
<path d="M33.2302 91.6357L44.3077 91.6357V104.726H33.2302V91.6357Z" fill="#EAEAEA"/>
<path d="M44.3077 104.728H55.3851V117.818H44.3077V104.728Z" fill="#EAEAEA"/>
<path d="M55.3851 117.817H66.462V130.908H55.3851V117.817Z" fill="#EAEAEA"/>
<path d="M66.4604 130.909H77.5373V144H66.4604V130.909Z" fill="#EAEAEA"/>
<path d="M77.5396 130.909H88.6165L88.6159 117.818L77.5396 117.818V130.909Z" fill="#EAEAEA"/>
<path d="M88.6149 117.817H99.6918L99.6923 104.726L88.6149 104.726V117.817Z" fill="#EAEAEA"/>
<path d="M99.6923 104.728H110.769V91.6367H99.6923V104.728Z" fill="#EAEAEA"/>
<path d="M110.77 91.6357H121.847V78.5449H110.77V91.6357Z" fill="#EAEAEA"/>
<path d="M121.845 78.5449L132.921 78.5449L132.922 65.4541H121.845V78.5449Z" fill="#EAEAEA"/>
<path d="M11.0753 13.0897H22.1522V26.1805H11.0753V13.0897Z" fill="#EAEAEA"/>
<path d="M121.845 0H88.6143V13.0908H121.845V0Z" fill="#EAEAEA"/>
<path d="M144 65.4529V26.1805H132.923V65.4529H144Z" fill="#EAEAEA"/>
<path d="M88.6149 13.0897H77.538V26.1805H88.6149V13.0897Z" fill="#EAEAEA"/>
<path d="M132.925 13.0897H121.848V26.1805H132.925V13.0897Z" fill="#EAEAEA"/>
<path d="M110.77 26.1817H99.6929V39.2725H110.77V26.1817Z" fill="#FAFAFA"/>
<path d="M121.845 26.1817H110.768V39.2725H121.845V26.1817Z" fill="#FAFAFA"/>
<path d="M121.845 39.2714H110.768V52.3622H121.845V39.2714Z" fill="#FAFAFA"/>
<path d="M66.4604 26.1817H77.5373V39.2725H66.4604V26.1817Z" fill="#EAEAEA"/>
<path d="M55.44 38.8797H66.96V50.3996H55.44V38.8797Z" fill="#191919"/>
<path d="M66.24 25.9198H77.76V39.5997H66.24V25.9198Z" fill="#191919"/>
<path d="M66.24 93.5993H77.76V107.279H66.24V93.5993Z" fill="#191919"/>
<path d="M77.76 107.279H89.28V118.799H77.76V107.279Z" fill="#191919"/>
<path d="M66.24 118.079H77.76V131.039H66.24V118.079Z" fill="#191919"/>
<path d="M77.04 12.9599H88.56V26.6398H77.04V12.9599Z" fill="#191919"/>
<path d="M66.96 50.3996H78.48V71.9994H66.96V50.3996Z" fill="#191919"/>
<path d="M55.44 71.9994H66.96V93.5993H55.44V71.9994Z" fill="#191919"/>
</svg>
