<svg width="33" height="33" viewBox="0 0 33 33" fill="none" xmlns="http://www.w3.org/2000/svg">
<rect x="9" width="15" height="3" fill="#EAEAEA"/>
<rect x="9" y="30" width="15" height="3" fill="#EAEAEA"/>
<rect x="3" y="24" width="3" height="3" fill="black"/>
<rect x="6" y="27" width="3" height="3" fill="black"/>
<rect width="3" height="3" transform="matrix(1 0 0 -1 3 9)" fill="black"/>
<rect width="3" height="3" transform="matrix(1 0 0 -1 6 6)" fill="black"/>
<rect width="3" height="3" transform="matrix(1 0 0 -1 6 12)" fill="white"/>
<rect width="3" height="3" transform="matrix(1 0 0 -1 9 9)" fill="white"/>
<rect x="27" y="6" width="3" height="3" fill="#EAEAEA"/>
<rect y="24" width="15" height="3" transform="rotate(-90 0 24)" fill="black"/>
<rect x="30" y="24" width="15" height="3" transform="rotate(-90 30 24)" fill="#EAEAEA"/>
<rect x="9" y="9" width="3" height="3" transform="rotate(180 9 9)" fill="#FAED00"/>
<rect x="23.5713" y="6" width="14.5714" height="3" transform="rotate(-180 23.5713 6)" fill="#FAED00"/>
<rect x="3" y="24" width="3" height="3" fill="#EAEAEA"/>
<rect x="6" y="27" width="3" height="3" fill="#EAEAEA"/>
<rect width="3" height="3" transform="matrix(1 0 0 -1 24 30)" fill="#EAEAEA"/>
<rect width="3" height="3" transform="matrix(1 0 0 -1 27 27)" fill="#EAEAEA"/>
<rect width="3" height="3" transform="matrix(1 0 0 -1 3 9)" fill="black"/>
<rect width="3" height="3" transform="matrix(1 0 0 -1 6 6)" fill="#EAEAEA"/>
<rect width="3" height="3" transform="matrix(1 0 0 -1 6 12)" fill="black"/>
<rect width="3" height="3" transform="matrix(1 0 0 -1 9 9)" fill="white"/>
<rect x="24" y="3" width="3" height="3" fill="#EAEAEA"/>
<rect y="24" width="15" height="3" transform="rotate(-90 0 24)" fill="#EAEAEA"/>
<rect x="9" y="9" width="3" height="3" transform="rotate(180 9 9)" fill="black"/>
<rect width="3" height="3" transform="matrix(1 0 0 -1 15 9)" fill="black"/>
<rect x="15" y="9" width="3" height="3" transform="rotate(180 15 9)" fill="white"/>
<rect width="3" height="3" transform="matrix(1 0 0 -1 21 9)" fill="black"/>
<rect width="3" height="3" transform="matrix(1 0 0 -1 24 9)" fill="black"/>
<rect x="21" y="9" width="3" height="3" transform="rotate(180 21 9)" fill="black"/>
<rect width="3" height="3" transform="matrix(1 0 0 -1 12 12)" fill="white"/>
<rect x="12" y="12" width="3" height="3" transform="rotate(180 12 12)" fill="white"/>
<rect x="6" y="9" width="3" height="3" transform="rotate(180 6 9)" fill="#EAEAEA"/>
<rect width="3" height="3" transform="matrix(1 0 0 -1 18 12)" fill="black"/>
<rect x="18" y="12" width="3" height="3" transform="rotate(180 18 12)" fill="black"/>
<rect width="3" height="3" transform="matrix(1 0 0 -1 24 12)" fill="white"/>
<rect width="3" height="3" transform="matrix(1 0 0 -1 27 12)" fill="white"/>
<rect x="24" y="12" width="3" height="3" transform="rotate(180 24 12)" fill="black"/>
<rect width="3" height="3" transform="matrix(1 0 0 -1 6 15)" fill="black"/>
<rect width="3" height="3" transform="matrix(1 0 0 -1 3 15)" fill="black"/>
<rect width="3" height="3" transform="matrix(1 0 0 -1 12 15)" fill="black"/>
<rect x="12" y="15" width="3" height="3" transform="rotate(180 12 15)" fill="black"/>
<rect x="6" y="12" width="3" height="3" transform="rotate(180 6 12)" fill="black"/>
<rect width="3" height="3" transform="matrix(1 0 0 -1 18 15)" fill="black"/>
<rect x="18" y="15" width="3" height="3" transform="rotate(180 18 15)" fill="black"/>
<rect width="3" height="3" transform="matrix(1 0 0 -1 24 15)" fill="white"/>
<rect width="3" height="3" transform="matrix(1 0 0 -1 27 15)" fill="white"/>
<rect x="24" y="15" width="3" height="3" transform="rotate(180 24 15)" fill="black"/>
<rect width="3" height="3" transform="matrix(1 0 0 -1 6 18)" fill="black"/>
<rect width="3" height="3" transform="matrix(1 0 0 -1 12 18)" fill="black"/>
<rect x="12" y="18" width="3" height="3" transform="rotate(180 12 18)" fill="black"/>
<rect x="6" y="18" width="3" height="3" transform="rotate(180 6 18)" fill="black"/>
<rect width="3" height="3" transform="matrix(1 0 0 -1 18 18)" fill="white"/>
<rect x="18" y="18" width="3" height="3" transform="rotate(180 18 18)" fill="black"/>
<rect width="3" height="3" transform="matrix(1 0 0 -1 24 18)" fill="white"/>
<rect width="3" height="3" transform="matrix(1 0 0 -1 27 18)" fill="white"/>
<rect x="24" y="18" width="3" height="3" transform="rotate(180 24 18)" fill="white"/>
<rect width="3" height="3" transform="matrix(1 0 0 -1 6 21)" fill="black"/>
<rect width="3" height="3" transform="matrix(1 0 0 -1 12 21)" fill="white"/>
<rect x="12" y="21" width="3" height="3" transform="rotate(180 12 21)" fill="black"/>
<rect x="6" y="21" width="3" height="3" transform="rotate(180 6 21)" fill="black"/>
<rect width="3" height="3" transform="matrix(1 0 0 -1 18 21)" fill="white"/>
<rect x="18" y="21" width="3" height="3" transform="rotate(180 18 21)" fill="white"/>
<rect width="3" height="3" transform="matrix(1 0 0 -1 24 21)" fill="white"/>
<rect width="3" height="3" transform="matrix(1 0 0 -1 27 21)" fill="white"/>
<rect x="24" y="21" width="3" height="3" transform="rotate(180 24 21)" fill="white"/>
<rect width="3" height="3" transform="matrix(1 0 0 -1 6 24)" fill="black"/>
<rect width="3" height="3" transform="matrix(1 0 0 -1 12 24)" fill="white"/>
<rect x="12" y="24" width="3" height="3" transform="rotate(180 12 24)" fill="white"/>
<rect x="6" y="24" width="3" height="3" transform="rotate(180 6 24)" fill="black"/>
<rect width="3" height="3" transform="matrix(1 0 0 -1 18 24)" fill="black"/>
<rect x="18" y="24" width="3" height="3" transform="rotate(180 18 24)" fill="white"/>
<rect width="3" height="3" transform="matrix(1 0 0 -1 24 24)" fill="white"/>
<rect width="3" height="3" transform="matrix(1 0 0 -1 27 24)" fill="white"/>
<rect x="24" y="24" width="3" height="3" transform="rotate(180 24 24)" fill="black"/>
<rect x="24" y="6" width="15" height="3" transform="rotate(-180 24 6)" fill="black"/>
<rect x="9" y="24" width="3" height="3" fill="white"/>
<rect width="3" height="3" transform="matrix(-1 0 0 1 9 24)" fill="black"/>
<rect x="15" y="24" width="3" height="3" fill="white"/>
<rect width="3" height="3" transform="matrix(-1 0 0 1 15 24)" fill="white"/>
<rect x="21" y="24" width="3" height="3" fill="black"/>
<rect x="24" y="24" width="3" height="3" fill="white"/>
<rect width="3" height="3" transform="matrix(-1 0 0 1 21 24)" fill="black"/>
<rect width="15" height="3" transform="matrix(-1 0 0 1 24 27)" fill="white"/>
</svg>
