<svg width="59" height="41" viewBox="0 0 59 41" fill="none" xmlns="http://www.w3.org/2000/svg">
<path d="M7.48731 10.9333H11.0812V33.7111H7.48731V10.9333Z" fill="black"/>
<path d="M11.0812 7.28889H14.6751V14.8815H11.0812V7.28889Z" fill="black"/>
<path d="M29.3503 26.4222H40.4315V33.7111H29.3503V26.4222Z" fill="black"/>
<path d="M14.6751 3.64444H18.269V7.28889H14.6751V3.64444Z" fill="black"/>
<path d="M18.269 0H44.3249V3.64444H18.269V0Z" fill="black"/>
<path d="M18.269 7.28889H26.0558V10.9333H18.269V7.28889Z" fill="black"/>
<path d="M18.269 14.5778H26.0558V18.2222H18.269V14.5778Z" fill="black"/>
<path d="M18.269 10.9333H21.8629V22.4741H18.269V10.9333Z" fill="black"/>
<path d="M25.7563 10.9333H29.3503V14.5778H25.7563V10.9333Z" fill="black"/>
<path d="M25.7563 26.4222H29.3503V30.0667H25.7563V26.4222Z" fill="black"/>
<path d="M14.6751 26.4222H22.1624V30.0667H14.6751V26.4222Z" fill="black"/>
<path d="M40.4315 30.0667H47.9188V33.7111H40.4315V30.0667Z" fill="black"/>
<path d="M40.4315 7.28889H48.2183V10.9333H40.4315V7.28889Z" fill="black"/>
<path d="M40.4315 14.5778H48.2183V18.2222H40.4315V14.5778Z" fill="black"/>
<path d="M40.4315 10.9333H44.0254V22.4741H40.4315V10.9333Z" fill="black"/>
<path d="M33.2437 14.8815H36.8376V22.4741H33.2437V14.8815Z" fill="black"/>
<path d="M44.3249 22.4741H47.9188V30.0667H44.3249V22.4741Z" fill="black"/>
<path d="M47.9188 26.4222H51.5127V30.0667H47.9188V26.4222Z" fill="black"/>
<path d="M47.9188 10.9333H51.5127V14.5778H47.9188V10.9333Z" fill="black"/>
<path d="M33.2437 7.28889H36.8376V10.9333H33.2437V7.28889Z" fill="black"/>
<path d="M25.7563 18.2222H29.3503V22.4741H25.7563V18.2222Z" fill="black"/>
<path d="M0 30.0667H7.48731V33.7111H0V30.0667Z" fill="#B2B2B2"/>
<path d="M0 30.0667H7.48731V33.7111H0V30.0667Z" fill="#B2B2B2"/>
<path d="M0 30.0667H7.48731V33.7111H0V30.0667Z" fill="#B2B2B2"/>
<path d="M3.59391 33.7111H18.269V37.3556H3.59391V33.7111Z" fill="#B2B2B2"/>
<path d="M3.59391 33.7111H18.269V37.3556H3.59391V33.7111Z" fill="#B2B2B2"/>
<path d="M3.59391 33.7111H18.269V37.3556H3.59391V33.7111Z" fill="#B2B2B2"/>
<path d="M14.6751 30.0667H29.3503V33.7111H14.6751V30.0667Z" fill="#B2B2B2"/>
<path d="M14.6751 30.0667H29.3503V33.7111H14.6751V30.0667Z" fill="#B2B2B2"/>
<path d="M14.6751 30.0667H29.3503V33.7111H14.6751V30.0667Z" fill="#B2B2B2"/>
<path d="M25.7563 33.7111H33.2437V37.3556H25.7563V33.7111Z" fill="#B2B2B2"/>
<path d="M25.7563 33.7111H33.2437V37.3556H25.7563V33.7111Z" fill="#B2B2B2"/>
<path d="M25.7563 33.7111H33.2437V37.3556H25.7563V33.7111Z" fill="#B2B2B2"/>
<path d="M44.3249 33.7111H55.4061V37.3556H44.3249V33.7111Z" fill="#B2B2B2"/>
<path d="M44.3249 33.7111H55.4061V37.3556H44.3249V33.7111Z" fill="#B2B2B2"/>
<path d="M44.3249 33.7111H55.4061V37.3556H44.3249V33.7111Z" fill="#B2B2B2"/>
<path d="M47.9188 30.0667H59V33.7111H47.9188V30.0667Z" fill="#B2B2B2"/>
<path d="M47.9188 30.0667H59V33.7111H47.9188V30.0667Z" fill="#B2B2B2"/>
<path d="M47.9188 30.0667H59V33.7111H47.9188V30.0667Z" fill="#B2B2B2"/>
<path d="M0 37.3556H3.59391V41H0V37.3556Z" fill="#B2B2B2"/>
<path d="M0 37.3556H3.59391V41H0V37.3556Z" fill="#B2B2B2"/>
<path d="M0 37.3556H3.59391V41H0V37.3556Z" fill="#B2B2B2"/>
<path d="M14.6751 37.3556H18.269V41H14.6751V37.3556Z" fill="#B2B2B2"/>
<path d="M14.6751 37.3556H18.269V41H14.6751V37.3556Z" fill="#B2B2B2"/>
<path d="M14.6751 37.3556H18.269V41H14.6751V37.3556Z" fill="#B2B2B2"/>
<path d="M11.0812 37.3556H14.6751V41H11.0812V37.3556Z" fill="#B2B2B2"/>
<path d="M11.0812 37.3556H14.6751V41H11.0812V37.3556Z" fill="#B2B2B2"/>
<path d="M11.0812 37.3556H14.6751V41H11.0812V37.3556Z" fill="#B2B2B2"/>
<path d="M25.7563 37.3556H29.3503V41H25.7563V37.3556Z" fill="#B2B2B2"/>
<path d="M25.7563 37.3556H29.3503V41H25.7563V37.3556Z" fill="#B2B2B2"/>
<path d="M25.7563 37.3556H29.3503V41H25.7563V37.3556Z" fill="#B2B2B2"/>
<path d="M55.4061 37.3556H59V41H55.4061V37.3556Z" fill="#B2B2B2"/>
<path d="M55.4061 37.3556H59V41H55.4061V37.3556Z" fill="#B2B2B2"/>
<path d="M55.4061 37.3556H59V41H55.4061V37.3556Z" fill="#B2B2B2"/>
<path d="M40.731 37.3556H44.3249V41H40.731V37.3556Z" fill="#B2B2B2"/>
<path d="M40.731 37.3556H44.3249V41H40.731V37.3556Z" fill="#B2B2B2"/>
<path d="M40.731 37.3556H44.3249V41H40.731V37.3556Z" fill="#B2B2B2"/>
</svg>
