<svg width="300" height="187" viewBox="0 0 300 187" fill="none" xmlns="http://www.w3.org/2000/svg">
<rect y="1.41504" width="8.10811" height="48.6486" fill="#D9D9D9"/>
<rect x="8.10791" y="8.36499" width="8.10811" height="8.10811" fill="#D9D9D9"/>
<rect x="16.2163" y="66.28" width="8.10811" height="8.10811" fill="#D9D9D9"/>
<rect x="24.3242" y="74.3882" width="8.10811" height="8.10811" fill="#D9D9D9"/>
<rect x="16.2163" y="16.4731" width="16.2162" height="8.10811" fill="#D9D9D9"/>
<rect x="8.10791" y="66.28" width="16.2162" height="8.10811" transform="rotate(-90 8.10791 66.28)" fill="#D9D9D9"/>
<rect x="32.4326" y="82.4961" width="16.2162" height="8.10811" fill="#D9D9D9"/>
<rect x="48.6484" y="90.6042" width="16.2162" height="8.10811" fill="#D9D9D9"/>
<rect x="113.514" y="113.77" width="16.2162" height="8.10811" transform="rotate(-90 113.514 113.77)" fill="#D9D9D9"/>
<rect x="64.8647" y="98.7124" width="40.5405" height="8.10811" fill="#D9D9D9"/>
<rect x="32.4326" y="24.5811" width="24.3243" height="8.10811" fill="#D9D9D9"/>
<rect x="56.7568" y="32.6892" width="32.4324" height="8.10811" fill="#D9D9D9"/>
<rect x="105.405" y="97.5542" width="24.3243" height="8.10811" transform="rotate(-90 105.405 97.5542)" fill="#D9D9D9"/>
<rect x="121.622" y="138.095" width="24.3243" height="8.10811" transform="rotate(-90 121.622 138.095)" fill="#D9D9D9"/>
<rect x="113.514" y="146.203" width="8.10811" height="8.10811" transform="rotate(-90 113.514 146.203)" fill="#D9D9D9"/>
<rect x="113.514" y="57.0137" width="8.10811" height="8.10811" transform="rotate(-90 113.514 57.0137)" fill="#66BD5E"/>
<rect x="121.622" y="48.9055" width="8.10811" height="8.10811" transform="rotate(-90 121.622 48.9055)" fill="#66BD5E"/>
<rect width="8.10811" height="8.10811" transform="matrix(0 -1 -1 0 186.486 57.0137)" fill="#66BD5E"/>
<rect width="16.2162" height="8.10811" transform="matrix(0 -1 -1 0 194.595 65.1216)" fill="#66BD5E"/>
<rect width="16.2162" height="8.10811" transform="matrix(0 -1 -1 0 178.378 73.2297)" fill="#58B469"/>
<rect width="16.2162" height="8.10811" transform="matrix(1 0 0 -1 202.703 65.1216)" fill="#58B469"/>
<rect width="16.2162" height="8.10811" transform="matrix(1 0 0 -1 194.595 40.7974)" fill="#58B469"/>
<rect width="16.2162" height="8.10811" transform="matrix(1 0 0 -1 202.703 81.3379)" fill="#58B469"/>
<rect width="8.10811" height="8.10811" transform="matrix(1 0 0 -1 218.919 57.0137)" fill="#58B469"/>
<rect width="8.10811" height="8.10811" transform="matrix(1 0 0 -1 194.595 73.2297)" fill="#58B469"/>
<rect width="8.10811" height="8.10811" transform="matrix(1 0 0 -1 178.378 81.3379)" fill="#58B469"/>
<rect width="8.10811" height="8.10811" transform="matrix(0 -1 -1 0 202.703 65.1216)" fill="#66BD5E"/>
<rect width="8.10811" height="8.10811" transform="matrix(0 -1 -1 0 178.378 48.9055)" fill="#66BD5E"/>
<rect x="129.729" y="40.7974" width="8.10811" height="16.2162" transform="rotate(-90 129.729 40.7974)" fill="#66BD5E"/>
<rect x="154.054" y="40.7974" width="8.10811" height="16.2162" transform="rotate(-90 154.054 40.7974)" fill="#66BD5E"/>
<rect x="129.729" y="32.6892" width="8.10811" height="8.10811" transform="rotate(-90 129.729 32.6892)" fill="#D9D9D9"/>
<rect x="129.729" y="16.4731" width="8.10811" height="8.10811" transform="rotate(-90 129.729 16.4731)" fill="#D9D9D9"/>
<rect x="137.838" y="8.36499" width="8.10811" height="8.10811" transform="rotate(-90 137.838 8.36499)" fill="#D9D9D9"/>
<rect x="145.946" y="8.36499" width="8.10811" height="8.10811" transform="rotate(-90 145.946 8.36499)" fill="#D9D9D9"/>
<rect x="129.729" y="24.5811" width="8.10811" height="8.10811" transform="rotate(-90 129.729 24.5811)" fill="#6B6B6B"/>
<rect x="105.405" y="154.311" width="8.10811" height="8.10811" transform="rotate(-90 105.405 154.311)" fill="#D9D9D9"/>
<rect x="97.2974" y="162.419" width="8.10811" height="8.10811" transform="rotate(-90 97.2974 162.419)" fill="#D9D9D9"/>
<rect x="105.405" y="170.527" width="8.10811" height="8.10811" transform="rotate(-90 105.405 170.527)" fill="#D9D9D9"/>
<rect x="113.514" y="178.635" width="8.10811" height="8.10811" transform="rotate(-90 113.514 178.635)" fill="#D9D9D9"/>
<rect x="121.622" y="178.635" width="8.10811" height="8.10811" transform="rotate(-90 121.622 178.635)" fill="#D9D9D9"/>
<rect x="129.729" y="186.743" width="8.10811" height="8.10811" transform="rotate(-90 129.729 186.743)" fill="#D9D9D9"/>
<rect x="137.838" y="186.743" width="8.10811" height="8.10811" transform="rotate(-90 137.838 186.743)" fill="#D9D9D9"/>
<rect x="145.946" y="186.743" width="8.10811" height="8.10811" transform="rotate(-90 145.946 186.743)" fill="#D9D9D9"/>
<rect x="89.189" y="40.7974" width="32.4324" height="8.10811" fill="#D9D9D9"/>
<rect width="8.10811" height="48.6486" transform="matrix(-1 0 0 1 300 1.41504)" fill="#D9D9D9"/>
<rect width="8.10811" height="8.10811" transform="matrix(-1 0 0 1 291.892 8.36499)" fill="#D9D9D9"/>
<rect width="8.10811" height="8.10811" transform="matrix(-1 0 0 1 283.784 66.28)" fill="#D9D9D9"/>
<rect width="8.10811" height="8.10811" transform="matrix(-1 0 0 1 275.676 74.3882)" fill="#D9D9D9"/>
<rect width="16.2162" height="8.10811" transform="matrix(-1 0 0 1 283.784 16.4731)" fill="#D9D9D9"/>
<rect width="16.2162" height="8.10811" transform="matrix(0 -1 -1 0 291.892 66.28)" fill="#D9D9D9"/>
<rect width="16.2162" height="8.10811" transform="matrix(0 -1 -1 0 162.162 138.095)" fill="#6B6B6B"/>
<rect width="16.2162" height="8.10811" transform="matrix(0 -1 -1 0 145.946 138.095)" fill="#6B6B6B"/>
<rect width="16.2162" height="8.10811" transform="matrix(-1 0 0 1 267.567 82.4961)" fill="#D9D9D9"/>
<rect width="16.2162" height="8.10811" transform="matrix(-1 0 0 1 251.352 90.6042)" fill="#D9D9D9"/>
<rect width="16.2162" height="8.10811" transform="matrix(0 -1 -1 0 186.486 113.77)" fill="#D9D9D9"/>
<rect width="40.5405" height="8.10811" transform="matrix(-1 0 0 1 235.135 98.7124)" fill="#D9D9D9"/>
<rect width="24.3243" height="8.10811" transform="matrix(-1 0 0 1 267.567 24.5811)" fill="#D9D9D9"/>
<rect width="32.4324" height="8.10811" transform="matrix(-1 0 0 1 243.243 32.6892)" fill="#D9D9D9"/>
<rect width="24.3243" height="8.10811" transform="matrix(0 -1 -1 0 194.595 97.5542)" fill="#D9D9D9"/>
<rect width="24.3243" height="8.10811" transform="matrix(0 -1 -1 0 178.378 138.095)" fill="#D9D9D9"/>
<rect width="8.10811" height="8.10811" transform="matrix(0 -1 -1 0 186.486 146.203)" fill="#D9D9D9"/>
<rect width="8.10811" height="8.10811" transform="matrix(0 -1 -1 0 170.271 32.6892)" fill="#D9D9D9"/>
<rect width="8.10811" height="8.10811" transform="matrix(0 -1 -1 0 178.378 40.7974)" fill="#D9D9D9"/>
<rect width="8.10811" height="8.10811" transform="matrix(0 -1 -1 0 154.054 32.6892)" fill="#FF9B0D"/>
<rect width="8.10811" height="8.10811" transform="matrix(0 -1 -1 0 170.271 16.4731)" fill="#D9D9D9"/>
<rect width="8.10811" height="8.10811" transform="matrix(0 -1 -1 0 162.162 8.36499)" fill="#D9D9D9"/>
<rect width="8.10811" height="8.10811" transform="matrix(0 -1 -1 0 170.271 24.5811)" fill="#6B6B6B"/>
<rect width="8.10811" height="8.10811" transform="matrix(0 -1 -1 0 194.595 154.311)" fill="#D9D9D9"/>
<rect width="8.10811" height="8.10811" transform="matrix(0 -1 -1 0 202.703 162.419)" fill="#D9D9D9"/>
<rect width="8.10811" height="8.10811" transform="matrix(0 -1 -1 0 194.595 170.527)" fill="#D9D9D9"/>
<rect width="8.10811" height="8.10811" transform="matrix(0 -1 -1 0 186.486 178.635)" fill="#D9D9D9"/>
<rect width="8.10811" height="8.10811" transform="matrix(0 -1 -1 0 178.378 178.635)" fill="#D9D9D9"/>
<rect width="8.10811" height="8.10811" transform="matrix(0 -1 -1 0 170.271 186.743)" fill="#D9D9D9"/>
<rect width="8.10811" height="8.10811" transform="matrix(0 -1 -1 0 162.162 186.743)" fill="#D9D9D9"/>
<rect width="32.4324" height="8.10811" transform="matrix(-1 0 0 1 210.811 40.7974)" fill="#D9D9D9"/>
</svg>
